<?xml version="1.0" encoding="utf-8"?>
<!-- Generator: Adobe Illustrator 22.1.0, SVG Export Plug-In . SVG Version: 6.00 Build 0)  -->
<svg version="1.1" id="Layer_1" xmlns="http://www.w3.org/2000/svg" xmlns:xlink="http://www.w3.org/1999/xlink" x="0px" y="0px"
	 viewBox="0 0 22.7 22.7" style="enable-background:new 0 0 22.7 22.7;" xml:space="preserve">
<style type="text/css">
	.st0{fill:none;stroke:#000000;stroke-width:1.5;stroke-linecap:round;stroke-linejoin:round;}
	.st1{fill:none;stroke:#000000;stroke-width:1.5;}
</style>
<g>
	<path class="st0" d="M16.8,6.8c0,0,1.5,1.5,1.5,4s-1.5,4-1.5,4"/>
	<path class="st1" d="M2.3,13.3v-4c0-0.6,0.4-1,1-1H6c0.2,0,0.4-0.1,0.6-0.2l4.2-2.8c0.7-0.4,1.6,0,1.6,0.8v10.3
		c0,0.8-0.9,1.3-1.6,0.8l-4.2-2.8c-0.2-0.1-0.4-0.2-0.6-0.2H3.3C2.8,14.3,2.3,13.9,2.3,13.3z"/>
</g>
</svg>
